HIERARCHY
ROOT ui
{
	 OFFSET 0 0 0
	 CHANNELS 3 XPosition YPosition Z Position
	 EndSite
	 {
	 OFFSET 0 -1 0
	 }
}
ROOT li
{
	 OFFSET 0 0 0
	 CHANNELS 3 XPosition YPosition Z Position
	 EndSite
	 {
	 OFFSET 0 -1 0
	 }
}
ROOT ul
{
	 OFFSET 0 0 0
	 CHANNELS 3 XPosition YPosition Z Position
	 EndSite
	 {
	 OFFSET 0 -1 0
	 }
}
ROOT ll
{
	 OFFSET 0 0 0
	 CHANNELS 3 XPosition YPosition Z Position
	 EndSite
	 {
	 OFFSET 0 -1 0
	 }
}
ROOT tt
{
	 OFFSET 0 0 0
	 CHANNELS 3 XPosition YPosition Z Position
	 EndSite
	 {
	 OFFSET 0 -1 0
	 }
}
ROOT tb
{
	 OFFSET 0 0 0
	 CHANNELS 3 XPosition YPosition Z Position
	 EndSite
	 {
	 OFFSET 0 -1 0
	 }
}
ROOT td
{
	 OFFSET 0 0 0
	 CHANNELS 3 XPosition YPosition Z Position
	 EndSite
	 {
	 OFFSET 0 -1 0
	 }
}
ROOT v
{
	 OFFSET 0 0 0
	 CHANNELS 3 XPosition YPosition Z Position
	 EndSite
	 {
	 OFFSET 0 -1 0
	 }
}
ROOT bn
{
	 OFFSET 0 0 0
	 CHANNELS 3 XPosition YPosition Z Position
	 EndSite
	 {
	 OFFSET 0 -1 0
	 }
}
MOTION
Frames: 10
Frame Time: 0.002
-0.0016757030487060548	7.82151997089386E-4	0		0.49885671997070313	-2.365227294921875	0		-0.8097429809570312	0.3913038940429687	0		-0.6271624755859375	-2.616873291015625	0		1.7063887939453124	-0.4616426086425781	0		3.337119873046875	-0.16778334045410156	0		4.49214013671875	-0.11060810089111328	0		5.9981513671875	0.526217529296875	0		-0.058108814239501955	5.9323603515625	0		
-0.001352828025817871	8.926129937171936E-4	0		0.46337872314453127	-2.353557373046875	0		-0.8094242553710937	0.3914057922363281	0		-0.6017222290039063	-2.611156005859375	0		1.7026553955078125	-0.46545184326171873	0		3.3224462890625	-0.16740602111816405	0		4.48835693359375	-0.11738739776611327	0		6.0064677734375	0.5262682495117188	0		-0.1911879119873047	5.91152490234375	0		
-0.004061940193176269	-0.0029655439853668213	0		0.44567236328125	-2.359177734375	0		-0.809077392578125	0.391489990234375	0		-0.6372996215820312	-2.60851416015625	0		1.7070750732421875	-0.46139581298828125	0		3.31872412109375	-0.1722037353515625	0		4.49049462890625	-0.13126077270507813	0		5.98595361328125	0.5357671508789063	0		-0.05757686233520508	5.932564453125	0		
-0.016768098831176758	-0.007683220863342285	0		0.4501551208496094	-2.3541513671875	0		-0.7928085327148438	0.385313232421875	0		-0.60801611328125	-2.61688818359375	0		1.713573974609375	-0.4533807678222656	0		3.308989501953125	-0.17891525268554687	0		4.49086572265625	-0.13110873413085938	0		6.01203466796875	0.51754443359375	0		-0.18965457153320311	5.9106806640625	0		
-2.5585800409317017E-4	0.0011398860216140748	0		0.44577142333984376	-2.340997802734375	0		-0.7873786010742188	0.38929290771484376	0		-0.625270751953125	-2.5955537109375	0		1.713957275390625	-0.4532809753417969	0		3.342625732421875	-0.1622978515625	0		4.49433544921875	-0.12500841522216796	0		6.01678515625	0.542653076171875	0		-0.05607255554199219	5.92969970703125	0		
1.1715800315141678E-4	0.0012026710510253907	0		0.4960260009765625	-2.351694091796875	0		-0.8120401611328125	0.3877261962890625	0		-0.5929634399414062	-2.60299267578125	0		1.7112772216796874	-0.45714154052734374	0		3.309744384765625	-0.1786673583984375	0		4.51050927734375	-0.13811102294921876	0		6.0081650390625	0.5439596557617188	0		-0.19009507751464844	5.91182275390625	0		
4.799070060253143E-4	0.0012612969875335693	0		0.4404818115234375	-2.347767822265625	0		-0.8067614135742187	0.3826947326660156	0		-0.6275057983398438	-2.599407470703125	0		1.7085867919921875	-0.4610069885253906	0		3.30521826171875	-0.17147596740722656	0		4.4899072265625	-0.13565284729003907	0		6.0085185546875	0.5441214599609375	0		-0.18983387756347656	5.9118779296875	0		
-0.002236041069030762	-0.00263427209854126	0		0.4678157653808594	-2.351116455078125	0		-0.8055606689453125	0.373725341796875	0		-0.6250881958007812	-2.597390625	0		1.7089393310546874	-0.46092132568359373	0		3.32236474609375	-0.1846235046386719	0		4.50402294921875	-0.15073495483398439	0		6.00373291015625	0.5363544921875	0		-0.18958468627929687	5.91193310546875	0		
0.0011448359489440918	0.001380013942718506	0		0.42719134521484375	-2.3494208984375	0		-0.8691163330078125	0.3827531433105469	0		-0.6107918701171875	-2.60155322265625	0		1.70926611328125	-0.4608347473144531	0		3.3018125	-0.1761918487548828	0		4.4923466796875	-0.15042233276367187	0		6.01328857421875	0.5523662719726562	0		-0.056017494201660155	5.932951171875	0		
0.0014323270320892333	0.0014470130205154418	0		0.4725680847167969	-2.346036865234375	0		-0.7958428344726562	0.38169082641601565	0		-0.6193134765625	-2.5913583984375	0		1.7095601806640626	-0.46074356079101564	0		3.31287158203125	-0.19124462890625	0		4.4987578125	-0.14238442993164063	0		6.013568359375	0.5525184936523437	0		-0.18915042114257813	5.91205517578125	0		
